<svg xmlns="http://www.w3.org/2000/svg" viewBox="0 0 64 64" fill="none">
  <rect width="64" height="64" rx="18" fill="#FFB3C6"/>
  <circle cx="32" cy="30" r="16" fill="#FFF5F8"/>
  <ellipse cx="24" cy="28" rx="3" ry="4" fill="#5C3D52"/>
  <ellipse cx="40" cy="28" rx="3" ry="4" fill="#5C3D52"/>
  <circle cx="25" cy="27" r="1" fill="#FFF"/>
  <circle cx="41" cy="27" r="1" fill="#FFF"/>
  <path d="M26 36c2.5 3 9.5 3 12 0" stroke="#FF8FAB" stroke-width="2" stroke-linecap="round"/>
  <ellipse cx="20" cy="32" rx="3" ry="2" fill="#FFD6E0" opacity="0.8"/>
  <ellipse cx="44" cy="32" rx="3" ry="2" fill="#FFD6E0" opacity="0.8"/>
  <path d="M32 8c-2 4-8 4-8 8 0 3 3 4 8 2 5 2 8 1 8-2 0-4-6-4-8-8z" fill="#FF6B95"/>
</svg>
