<svg width="20" height="20" viewBox="0 0 20 20" fill="none" xmlns="http://www.w3.org/2000/svg">
<mask id="mask0_372_2327" style="mask-type:alpha" maskUnits="userSpaceOnUse" x="0" y="0" width="20" height="20">
<rect width="20" height="20" fill="#D9D9D9"/>
</mask>
<g mask="url(#mask0_372_2327)">
<path d="M10.0163 16.6665C9.09211 16.6665 8.22593 16.4926 7.41773 16.1448C6.60954 15.797 5.90336 15.321 5.29919 14.7169C4.69503 14.1127 4.21905 13.4065 3.87128 12.5983C3.5235 11.7901 3.34961 10.924 3.34961 9.9998C3.34961 9.07563 3.5235 8.20945 3.87128 7.40126C4.21905 6.59306 4.69503 5.88688 5.29919 5.28271C5.90336 4.67855 6.60954 4.20257 7.41773 3.8548C8.22593 3.50702 9.09211 3.33313 10.0163 3.33313C10.9735 3.33313 11.8851 3.53077 12.7511 3.92605C13.6169 4.32132 14.372 4.87264 15.0163 5.58V3.58959H15.8496V7.05105H12.3882V6.21771H14.4554C13.8753 5.57882 13.2059 5.07723 12.4473 4.71292C11.6888 4.34862 10.8785 4.16646 10.0163 4.16646C8.39128 4.16646 7.0128 4.73244 5.88086 5.86438C4.74891 6.99632 4.18294 8.3748 4.18294 9.9998C4.18294 11.6248 4.74891 13.0033 5.88086 14.1352C7.0128 15.2672 8.39128 15.8331 10.0163 15.8331C11.4746 15.8331 12.7436 15.3583 13.8232 14.4085C14.9027 13.4587 15.5558 12.2669 15.7823 10.8331H16.6252C16.4276 12.5116 15.6997 13.9034 14.4417 15.0085C13.1838 16.1138 11.7086 16.6665 10.0163 16.6665ZM12.6382 13.2113L9.59961 10.1729V5.83313H10.4329V9.82667L13.2277 12.6217L12.6382 13.2113Z" fill="#0C6639"/>
</g>
</svg>
